<mxfile host="app.diagrams.net" modified="2022-03-21T10:01:19.307Z" agent="5.0 (Macintosh; Intel Mac OS X 10_15_7) AppleWebKit/605.1.15 (KHTML, like Gecko) Version/15.3 Safari/605.1.15" etag="HAGPx1Z_x1VLToDVqx3P" version="17.1.3" type="github">
  <diagram name="Page-1" id="74e2e168-ea6b-b213-b513-2b3c1d86103e">
    <mxGraphModel dx="1426" dy="825" grid="1" gridSize="10" guides="1" tooltips="1" connect="1" arrows="1" fold="1" page="1" pageScale="1" pageWidth="1100" pageHeight="850" background="none" math="0" shadow="0">
      <root>
        <mxCell id="0" />
        <mxCell id="1" parent="0" />
        <mxCell id="JhV3t8sQwqxpX1MXlz6h-6" value="" style="edgeStyle=orthogonalEdgeStyle;rounded=0;orthogonalLoop=1;jettySize=auto;html=1;" edge="1" parent="1" source="JhV3t8sQwqxpX1MXlz6h-2" target="JhV3t8sQwqxpX1MXlz6h-5">
          <mxGeometry relative="1" as="geometry">
            <Array as="points">
              <mxPoint x="495" y="140" />
              <mxPoint x="343" y="140" />
            </Array>
          </mxGeometry>
        </mxCell>
        <mxCell id="JhV3t8sQwqxpX1MXlz6h-9" value="" style="edgeStyle=orthogonalEdgeStyle;rounded=0;orthogonalLoop=1;jettySize=auto;html=1;" edge="1" parent="1" source="JhV3t8sQwqxpX1MXlz6h-2" target="JhV3t8sQwqxpX1MXlz6h-7">
          <mxGeometry relative="1" as="geometry" />
        </mxCell>
        <mxCell id="JhV3t8sQwqxpX1MXlz6h-2" value="" style="rounded=1;whiteSpace=wrap;html=1;" vertex="1" parent="1">
          <mxGeometry x="350" y="50" width="290" height="60" as="geometry" />
        </mxCell>
        <mxCell id="JhV3t8sQwqxpX1MXlz6h-10" value="" style="edgeStyle=orthogonalEdgeStyle;rounded=0;orthogonalLoop=1;jettySize=auto;html=1;exitX=0.5;exitY=1;exitDx=0;exitDy=0;" edge="1" parent="1" source="JhV3t8sQwqxpX1MXlz6h-2" target="JhV3t8sQwqxpX1MXlz6h-7">
          <mxGeometry relative="1" as="geometry" />
        </mxCell>
        <mxCell id="JhV3t8sQwqxpX1MXlz6h-12" value="" style="edgeStyle=orthogonalEdgeStyle;rounded=0;orthogonalLoop=1;jettySize=auto;html=1;" edge="1" parent="1">
          <mxGeometry relative="1" as="geometry">
            <mxPoint x="495" y="140" as="sourcePoint" />
            <mxPoint x="660" y="180" as="targetPoint" />
          </mxGeometry>
        </mxCell>
        <mxCell id="JhV3t8sQwqxpX1MXlz6h-3" value="Request past launch data from API" style="text;html=1;strokeColor=none;fillColor=none;align=center;verticalAlign=middle;whiteSpace=wrap;rounded=0;" vertex="1" parent="1">
          <mxGeometry x="400" y="65" width="190" height="30" as="geometry" />
        </mxCell>
        <mxCell id="JhV3t8sQwqxpX1MXlz6h-5" value="Request &amp;nbsp;rockets data from API" style="whiteSpace=wrap;html=1;rounded=1;" vertex="1" parent="1">
          <mxGeometry x="285" y="180" width="115" height="60" as="geometry" />
        </mxCell>
        <mxCell id="JhV3t8sQwqxpX1MXlz6h-7" value="Request payload&lt;br&gt;&amp;nbsp;data from API" style="rounded=1;whiteSpace=wrap;html=1;" vertex="1" parent="1">
          <mxGeometry x="435" y="180" width="120" height="60" as="geometry" />
        </mxCell>
        <mxCell id="JhV3t8sQwqxpX1MXlz6h-13" value="Request cores &lt;br&gt;data from API" style="rounded=1;whiteSpace=wrap;html=1;" vertex="1" parent="1">
          <mxGeometry x="590" y="180" width="120" height="60" as="geometry" />
        </mxCell>
      </root>
    </mxGraphModel>
  </diagram>
</mxfile>
